<svg version="1.1" xmlns="http://www.w3.org/2000/svg" xmlns:xlink="http://www.w3.org/1999/xlink" width="1560" height="804"><defs/><g><path fill="none" stroke="#7e22ce" paint-order="fill stroke markers" d=" M 20 417.4378420705358 L 21 418.20829010374575 L 22 418.9785268964535 L 23 419.7485424102646 L 24 420.5183266096687 L 25 421.28786946217014 L 26 422.0571609384186 L 27 422.8261910123399 L 28 423.5949496612669 L 29 424.3634268660697 L 30 425.1316126112864 L 31 425.89949688525377 L 32 426.66706968023766 L 33 427.4343209925632 L 34 428.2012408227455 L 35 428.96781917561975 L 36 429.73404606047166 L 37 430.49991149116755 L 38 431.2654054862845 L 39 432.03051806924043 L 40 432.79523926842415 L 41 433.5595591173255 L 42 434.3234676546648 L 43 435.08695492452307 L 44 435.8500109764717 L 45 436.61262586570206 L 46 437.37478965315506 L 47 438.13649240565087 L 48 438.8977241960181 L 49 439.65847510322357 L 50 440.4187352125012 L 51 441.1784946154815 L 52 441.93774341032065 L 53 442.6964717018294 L 54 443.4546696016023 L 55 444.2123272281463 L 56 444.9694347070097 L 57 445.7259821709109 L 58 446.48195975986675 L 59 447.2373576213213 L 60 447.99216591027397 L 61 448.74637478940826 L 62 449.49997442921944 L 63 450.2529550081431 L 64 451.0053067126829 L 65 451.7570197375384 L 66 452.5080842857333 L 67 453.2584905687425 L 68 454.0082288066202 L 69 454.757289228127 L 70 455.5056620708574 L 71 456.2533375813672 L 72 457.0003060153002 L 73 457.7465576375156 L 74 458.4920827222146 L 75 459.23687155306743 L 76 459.98091442333964 L 77 460.72420163601885 L 78 461.46672350394107 L 79 462.208470349917 L 80 462.94943250685805 L 81 463.6896003179023 L 82 464.4289641365406 L 83 465.16751432674204 L 84 465.9052412630796 L 85 466.6421353308555 L 86 467.37818692622704 L 87 468.1133864563309 L 88 468.84772433940884 L 89 469.5811910049323 L 90 470.31377689372715 L 91 471.0454724580984 L 92 471.7762681619545 L 93 472.50615448093157 L 94 473.2351219025178 L 95 473.963160926177 L 96 474.69026206347297 L 97 475.4164158381926 L 98 476.14161278646986 L 99 476.86584345690864 L 100 477.58909841070647 L 101 478.31136822177706 L 102 479.0326434768735 L 103 479.7529147757107 L 104 480.4721727310881 L 105 481.19040796901174 L 106 481.9076111288168 L 107 482.62377286328933 L 108 483.33888383878804 L 109 484.0529347353661 L 110 484.7659162468927 L 111 485.4778190811739 L 112 486.1886339600743 L 113 486.8983516196374 L 114 487.60696281020694 L 115 488.31445829654683 L 116 489.0208288579619 L 117 489.7260652884181 L 118 490.4301583966622 L 119 491.1330990063418 L 120 491.83487795612484 L 121 492.5354860998191 L 122 493.2349143064912 L 123 493.9331534605858 L 124 494.6301944620443 L 125 495.32602822642355 L 126 496.02064568501396 L 127 496.7140377849581 L 128 497.4061954893683 L 129 498.09710977744487 L 130 498.78677164459305 L 131 499.475172102541 L 132 500.1623021794565 L 133 500.8481529200641 L 134 501.5327153857618 L 135 502.21598065473745 L 136 502.8979398220851 L 137 503.5785839999211 L 138 504.2579043174999 L 139 504.93589192132947 L 140 505.6125379752872 L 141 506.2878336607343 L 142 506.9617701766315 L 143 507.6343387396533 L 144 508.3055305843024 L 145 508.97533696302435 L 146 509.64374914632106 L 147 510.310758422865 L 148 510.9763560996123 L 149 511.6405335019166 L 150 512.3032819736414 L 151 512.9645928772737 L 152 513.6244575940359 L 153 514.2828675239982 L 154 514.9398140861913 L 155 515.5952887187171 L 156 516.2492828788617 L 157 516.9017880432054 L 158 517.5527957077351 L 159 518.2022973879534 L 160 518.8502846189912 L 161 519.4967489557163 L 162 520.1416819728445 L 163 520.7850752650493 L 164 521.4269204470706 L 165 522.0672091538253 L 166 522.7059330405151 L 167 523.3430837827361 L 168 523.9786530765871 L 169 524.6126326387772 L 170 525.2450142067347 L 171 525.8757895387142 L 172 526.5049504139043 L 173 527.1324886325344 L 174 527.7583960159818 L 175 528.3826644068783 L 176 529.0052856692167 L 177 529.6262516884563 L 178 530.2455543716287 L 179 530.8631856474444 L 180 531.4791374663964 L 181 532.0934018008661 L 182 532.7059706452277 L 183 533.3168360159523 L 184 533.9259899517124 L 185 534.5334245134851 L 186 535.1391317846562 L 187 535.7431038711228 L 188 536.3453329013967 L 189 536.9458110267065 L 190 537.5445304211 L 191 538.1414832815468 L 192 538.736661828039 L 193 539.3300583036932 L 194 539.9216649748516 L 195 540.5114741311829 L 196 541.099478085782 L 197 541.6856691752714 L 198 542.2700397599 L 199 542.852582223643 L 200 543.4332889743018 L 201 544.012152443602 L 202 544.5891650872924 L 203 545.1643193852435 L 204 545.7376078415456 L 205 546.3090229846057 L 206 546.8785573672461 L 207 547.4462035668002 L 208 548.0119541852105 L 209 548.5758018491235 L 210 549.1377392099874 L 211 549.6977589441469 L 212 550.2558537529387 L 213 550.8120163627871 L 214 551.366239525298 L 215 551.9185160173546 L 216 552.4688386412101 L 217 553.0172002245827 L 218 553.5635936207482 L 219 554.1080117086337 L 220 554.6504473929103 L 221 555.1908936040855 L 222 555.7293432985952 L 223 556.2657894588956 L 224 556.8002250935549 L 225 557.3326432373443 L 226 557.8630369513282 L 227 558.3913993229556 L 228 558.9177234661497 L 229 559.4420025213972 L 230 559.9642296558387 L 231 560.4843980633569 L 232 561.0025009646658 L 233 561.5185316073987 L 234 562.0324832661966 L 235 562.5443492427951 L 236 563.054122866113 L 237 563.5617974923377 L 238 564.0673665050133 L 239 564.5708233151254 L 240 565.072161361188 L 241 565.5713741093288 L 242 566.0684550533738 L 243 566.5633977149329 L 244 567.0561956434838 L 245 567.5468424164561 L 246 568.0353316393155 L 247 568.5216569456464 L 248 569.0058119972355 L 249 569.4877904841537 L 250 569.9675861248395 L 251 570.4451926661795 L 252 570.920603883591 L 253 571.393813581102 L 254 571.8648155914335 L 255 572.3336037760785 L 256 572.8001720253824 L 257 573.2645142586229 L 258 573.7266244240891 L 259 574.1864964991604 L 260 574.6441244903848 L 261 575.0995024335571 L 262 575.5526243937968 L 263 576.0034844656252 L 264 576.4520767730428 L 265 576.8983954696052 L 266 577.3424347385 L 267 577.7841887926218 L 268 578.2236518746487 L 269 578.6608182571163 L 270 579.0956822424929 L 271 579.5282381632538 L 272 579.9584803819548 L 273 580.3864032913059 L 274 580.8120013142444 L 275 581.2352689040076 L 276 581.6562005442049 L 277 582.0747907488899 L 278 582.4910340626317 L 279 582.9049250605864 L 280 583.3164583485672 L 281 583.7256285631152 L 282 584.132430371569 L 283 584.5368584721346 L 284 584.9389075939538 L 285 585.3385724971737 L 286 585.7358479730144 L 287 586.1307288438372 L 288 586.5232099632119 L 289 586.9132862159838 L 290 587.3009525183409 L 291 587.6862038178792 L 292 588.0690350936699 L 293 588.4494413563232 L 294 588.8274176480547 L 295 589.2029590427494 L 296 589.5760606460258 L 297 589.9467175953002 L 298 590.3149250598495 L 299 590.6806782408745 L 300 591.0439723715624 L 301 591.4048027171488 L 302 591.7631645749793 L 303 592.1190532745715 L 304 592.4724641776747 L 305 592.8233926783316 L 306 593.1718342029374 L 307 593.5177842102996 L 308 593.8612381916976 L 309 594.202191670941 L 310 594.5406402044283 L 311 594.8765793812045 L 312 595.2100048230185 L 313 595.5409121843809 L 314 595.8692971526195 L 315 596.1951554479366 L 316 596.5184828234642 L 317 596.839275065319 L 318 597.1575279926585 L 319 597.4732374577343 L 320 597.7863993459465 L 321 598.0970095758978 L 322 598.4050640994459 L 323 598.7105589017572 L 324 599.013490001358 L 325 599.3138534501877 L 326 599.6116453336489 L 327 599.9068617706594 L 328 600.1994989137025 L 329 600.489552948877 L 330 600.7770200959468 L 331 601.0618966083908 L 332 601.344178773451 L 333 601.6238629121812 L 334 601.9009453794949 L 335 602.1754225642134 L 336 602.4472908891113 L 337 602.7165468109648 L 338 602.9831868205972 L 339 603.2472074429245 L 340 603.5086052370007 L 341 603.767376796063 L 342 604.0235187475758 L 343 604.277027753275 L 344 604.5279005092112 L 345 604.7761337457929 L 346 605.0217242278292 L 347 605.2646687545717 L 348 605.5049641597567 L 349 605.7426073116458 L 350 605.9775951130672 L 351 606.209924501456 L 352 606.439592448894 L 353 606.6665959621494 L 354 606.8909320827149 L 355 607.112597886848 L 356 607.3315904856073 L 357 607.5479070248914 L 358 607.7615446854752 L 359 607.9725006830474 L 360 608.1807722682466 L 361 608.3863567266965 L 362 608.5892513790421 L 363 608.7894535809843 L 364 608.9869607233142 L 365 609.1817702319472 L 366 609.3738795679569 L 367 609.5632862276077 L 368 609.7499877423876 L 369 609.9339816790404 L 370 610.1152656395975 L 371 610.293837261409 L 372 610.4696942171746 L 373 610.6428342149738 L 374 610.8132549982959 L 375 610.9809543460692 L 376 611.1459300726906 L 377 611.3081800280531 L 378 611.4677020975744 L 379 611.6244942022245 L 380 611.7785542985528 L 381 611.9298803787141 L 382 612.0784704704959 L 383 612.224322637343 L 384 612.3674349783835 L 385 612.5078056284531 L 386 612.6454327581196 L 387 612.7803145737071 L 388 612.9124493173184 L 389 613.041835266859 L 390 613.168470736059 L 391 613.292354074495 L 392 613.4134836676118 L 393 613.5318579367433 L 394 613.6474753391336 L 395 613.7603343679563 L 396 613.8704335523344 L 397 613.9777714573598 L 398 614.082346684112 L 399 614.1841578696758 L 400 614.2832036871594 L 401 614.3794828457118 L 402 614.4729940905394 L 403 614.5637362029227 L 404 614.6517080002315 L 405 614.736908335941 L 406 614.8193360996468 L 407 614.8989902170783 L 408 614.9758696501144 L 409 615.0499733967952 L 410 615.1213004913367 L 411 615.189850004142 L 412 615.2556210418145 L 413 615.318612747169 L 414 615.378824299243 L 415 615.436254913307 L 416 615.4909038408757 L 417 615.5427703697168 L 418 615.5918538238606 L 419 615.638153563609 L 420 615.6816689855434 L 421 615.7223995225334 L 422 615.7603446437431 L 423 615.7955038546387 L 424 615.827876696995 L 425 615.857462748901 L 426 615.8842616247655 L 427 615.9082729753222 L 428 615.9294964876348 L 429 615.9479318850995 L 430 615.9635789274506 L 431 615.9764374107621 L 432 615.986507167451 L 433 615.9937880662798 L 434 615.9982800123572 L 435 615.9999829471404 L 436 615.9988968484353 L 437 615.9950217303967 L 438 615.9883576435287 L 439 615.9789046746835 L 440 615.9666629470602 L 441 615.9516326202037 L 442 615.9338138900023 L 443 615.913206988685 L 444 615.8898121848191 L 445 615.8636297833058 L 446 615.8346601253769 L 447 615.8029035885901 L 448 615.7683605868242 L 449 615.7310315702736 L 450 615.6909170254423 L 451 615.648017475138 L 452 615.6023334784649 L 453 615.5538656308163 L 454 615.5026145638674 L 455 615.4485809455665 L 456 615.3917654801267 L 457 615.3321689080163 L 458 615.2697920059497 L 459 615.2046355868769 L 460 615.1367004999726 L 461 615.065987630626 L 462 614.9924979004285 L 463 614.9162322671621 L 464 614.8371917247867 L 465 614.7553773034273 L 466 614.6707900693604 L 467 614.5834311250001 L 468 614.4933016088842 L 469 614.4004026956585 L 470 614.3047355960625 L 471 614.2063015569129 L 472 614.1051018610873 L 473 614.001137827508 L 474 613.8944108111247 L 475 613.7849222028962 L 476 613.6726734297732 L 477 613.5576659546792 L 478 613.4399012764915 L 479 613.3193809300212 L 480 613.1961064859945 L 481 613.0700795510305 L 482 612.941301767622 L 483 612.8097748141124 L 484 612.6755004046755 L 485 612.5384802892918 L 486 612.3987162537261 L 487 612.2562101195049 L 488 612.1109637438917 L 489 611.9629790198634 L 490 611.8122578760853 L 491 611.6588022768859 L 492 611.5026142222321 L 493 611.343695747702 L 494 611.1820489244591 L 495 611.017675859225 L 496 610.8505786942524 L 497 610.6807596072962 L 498 610.5082208115862 L 499 610.3329645557978 L 500 610.1549931240228 L 501 609.9743088357391 L 502 609.790914045781 L 503 609.6048111443089 L 504 609.4160025567771 L 505 609.2244907439031 L 506 609.0302782016349 L 507 608.8333674611189 L 508 608.6337610886669 L 509 608.4314616857222 L 510 608.2264718888262 L 511 608.0187943695839 L 512 607.808431834629 L 513 607.5953870255885 L 514 607.3796627190472 L 515 607.1612617265116 L 516 606.9401868943728 L 517 606.71644110387 L 518 606.4900272710526 L 519 606.2609483467419 L 520 606.0292073164934 L 521 605.7948072005572 L 522 605.5577510538392 L 523 605.3180419658607 L 524 605.0756830607186 L 525 604.8306774970443 L 526 604.5830284679632 L 527 604.3327392010523 L 528 604.0798129582984 L 529 603.8242530360558 L 530 603.5660627650032 L 531 603.3052455101003 L 532 603.041804670544 L 533 602.7757436797237 L 534 602.5070660051774 L 535 602.2357751485456 L 536 601.9618746455261 L 537 601.685368065828 L 538 601.406259013125 L 539 601.1245511250085 L 540 600.8402480729401 L 541 600.5533535622039 L 542 600.2638713318584 L 543 599.9718051546869 L 544 599.6771588371494 L 545 599.3799362193324 L 546 599.0801411748989 L 547 598.7777776110383 L 548 598.4728494684148 L 549 598.1653607211166 L 550 597.8553153766039 L 551 597.5427174756567 L 552 597.2275710923221 L 553 596.9098803338613 L 554 596.5896493406959 L 555 596.2668822863541 L 556 595.9415833774162 L 557 595.6137568534601 L 558 595.2834069870054 L 559 594.9505380834582 L 560 594.615154481055 L 561 594.2772605508059 L 562 593.9368606964377 L 563 593.593959354337 L 564 593.2485609934914 L 565 592.9006701154323 L 566 592.5502912541754 L 567 592.197428976162 L 568 591.8420878801996 L 569 591.4842725974019 L 570 591.1239877911279 L 571 590.761238156922 L 572 590.3960284224521 L 573 590.0283633474487 L 574 589.6582477236418 L 575 589.2856863746995 L 576 588.9106841561646 L 577 588.5332459553915 L 578 588.1533766914824 L 579 587.7710813152231 L 580 587.3863648090187 L 581 586.9992321868286 L 582 586.6096884941012 L 583 586.2177388077077 L 584 585.8233882358769 L 585 585.4266419181274 L 586 585.0275050252015 L 587 584.6259827589978 L 588 584.2220803525026 L 589 583.8158030697228 L 590 583.4071562056165 L 591 582.9961450860242 L 592 582.5827750675994 L 593 582.1670515377392 L 594 581.7489799145131 L 595 581.3285656465935 L 596 580.9058142131837 L 597 580.4807311239476 L 598 580.0533219189367 L 599 579.6235921685187 L 600 579.1915474733047 L 601 578.757193464076 L 602 578.3205358017111 L 603 577.8815801771115 L 604 577.4403323111278 L 605 576.9967979544851 L 606 576.5509828877082 L 607 576.1028929210459 L 608 575.6525338943952 L 609 575.199911677226 L 610 574.745032168504 L 611 574.2879012966135 L 612 573.8285250192807 L 613 573.3669093234959 L 614 572.9030602254354 L 615 572.4369837703833 L 616 571.9686860326525 L 617 571.4981731155052 L 618 571.0254511510743 L 619 570.5505263002827 L 620 570.073404752763 L 621 569.5940927267775 L 622 569.1125964691362 L 623 568.6289222551163 L 624 568.14307638838 L 625 567.6550652008922 L 626 567.164895052838 L 627 566.6725723325404 L 628 566.1781034563762 L 629 565.681494868693 L 630 565.1827530417247 L 631 564.6818844755078 L 632 564.178895697796 L 633 563.6737932639754 L 634 563.1665837569795 L 635 562.6572737872027 L 636 562.1458699924144 L 637 561.6323790376729 L 638 561.1168076152377 L 639 560.599162444483 L 640 560.07945027181 L 641 559.5576778705586 L 642 559.0338520409196 L 643 558.5079796098457 L 644 557.9800674309631 L 645 557.4501223844811 L 646 556.9181513771036 L 647 556.3841613419384 L 648 555.8481592384069 L 649 555.3101520521539 L 650 554.7701467949557 L 651 554.2281505046295 L 652 553.6841702449415 L 653 553.1382131055143 L 654 552.5902862017351 L 655 552.0403966746629 L 656 551.4885516909353 L 657 550.9347584426748 L 658 550.3790241473959 L 659 549.8213560479098 L 660 549.2617614122315 L 661 548.7002475334837 L 662 548.1368217298026 L 663 547.5714913442423 L 664 547.0042637446788 L 665 546.4351463237147 L 666 545.8641464985818 L 667 545.2912717110455 L 668 544.7165294273073 L 669 544.1399271379071 L 670 543.5614723576265 L 671 542.9811726253902 L 672 542.399035504168 L 673 541.8150685808757 L 674 541.2292794662773 L 675 540.6416757948848 L 676 540.0522652248592 L 677 539.4610554379105 L 678 538.8680541391977 L 679 538.2732690572286 L 680 537.6767079437582 L 681 537.0783785736887 L 682 536.4782887449677 L 683 535.8764462784866 L 684 535.2728590179788 L 685 534.6675348299173 L 686 534.0604816034121 L 687 533.4517072501076 L 688 532.8412197040797 L 689 532.2290269217317 L 690 531.6151368816913 L 691 530.999557584706 L 692 530.3822970535399 L 693 529.7633633328675 L 694 529.1427644891701 L 695 528.5205086106307 L 696 527.8966038070278 L 697 527.2710582096302 L 698 526.6438799710908 L 699 526.0150772653409 L 700 525.384658287483 L 701 524.7526312536844 L 702 524.1190044010697 L 703 523.4837859876138 L 704 522.8469842920347 L 705 522.2086076136844 L 706 521.568664272442 L 707 520.9271626086042 L 708 520.2841109827776 L 709 519.6395177757689 L 710 518.9933913884762 L 711 518.3457402417794 L 712 517.69657277643 L 713 517.0458974529421 L 714 516.3937227514808 L 715 515.7400571717533 L 716 515.0849092328962 L 717 514.4282874733661 L 718 513.7702004508277 L 719 513.1106567420421 L 720 512.4496649427552 L 721 511.787233667586 L 722 511.1233715499135 L 723 510.45808724176504 L 724 509.7913894137029 L 725 509.1232867547119 L 726 508.45378797208565 L 727 507.7829017913132 L 728 507.11063695596556 L 729 506.43700222758133 L 730 505.76200638555304 L 731 505.0856582270121 L 732 504.40796656671495 L 733 503.72894023692703 L 734 503.04858808730893 L 735 502.36691898480024 L 736 501.68394181350425 L 737 500.9996654745722 L 738 500.31409888608715 L 739 499.62725098294777 L 740 498.93913071675206 L 741 498.2497470556805 L 742 497.559108984379 L 743 496.86722550384246 L 744 496.17410563129675 L 745 495.47975840008155 L 746 494.7841928595325 L 747 494.0874180748634 L 748 493.3894431270479 L 749 492.6902771127013 L 750 491.98992914396166 L 751 491.2884083483716 L 752 490.5857238687588 L 753 489.88188486311736 L 754 489.1769005044879 L 755 488.4707799808383 L 756 487.7635324949441 L 757 487.05516726426833 L 758 486.34569352084145 L 759 485.6351205111407 L 760 484.9234574959704 L 761 484.21071375034046 L 762 483.49689856334595 L 763 482.78202123804584 L 764 482.0660910913417 L 765 481.3491174538567 L 766 480.6311096698133 L 767 479.9120770969122 L 768 479.1920291062097 L 769 478.4709750819961 L 770 477.7489244216732 L 771 477.02588653563186 L 772 476.30187084712924 L 773 475.5768867921661 L 774 474.85094381936375 L 775 474.1240513898411 L 776 473.39621897709094 L 777 472.66745606685697 L 778 471.9377721570099 L 779 471.20717675742355 L 780 470.4756793898513 L 781 469.7432895878016 L 782 469.0100168964139 L 783 468.2758708723343 L 784 467.5408610835909 L 785 466.80499710946907 L 786 466.0682885403867 L 787 465.3307449777691 L 788 464.5923760339242 L 789 463.8531913319167 L 790 463.11320050544316 L 791 462.3724131987062 L 792 461.6308390662889 L 793 460.88848777302894 L 794 460.1453689938924 L 795 459.40149241384825 L 796 458.65686772774154 L 797 457.9115046401674 L 798 457.16541286534436 L 799 456.41860212698805 L 800 455.67108215818394 L 801 454.9228627012611 L 802 454.1739535076647 L 803 453.4243643378293 L 804 452.6741049610514 L 805 451.9231851553624 L 806 451.1716147074007 L 807 450.41940341228474 L 808 449.6665610734848 L 809 448.9130975026956 L 810 448.1590225197084 L 811 447.4043459522825 L 812 446.6490776360179 L 813 445.8932274142269 L 814 445.13680513780537 L 815 444.37982066510483 L 816 443.6222838618039 L 817 442.86420460077966 L 818 442.1055927619788 L 819 441.34645823228925 L 820 440.58681090541086 L 821 439.8266606817268 L 822 439.06601746817455 L 823 438.3048911781165 L 824 437.54329173121107 L 825 436.781229053283 L 826 436.0187130761946 L 827 435.2557537377158 L 828 434.4923609813946 L 829 433.72854475642805 L 830 432.964315017532 L 831 432.19968172481157 L 832 431.43465484363145 L 833 430.66924434448583 L 834 429.90346020286853 L 835 429.13731239914307 L 836 428.3708109184126 L 837 427.60396575038936 L 838 426.83678688926517 L 839 426.06928433358075 L 840 425.3014680860954 L 841 424.53334815365673 L 842 423.7649345470704 L 843 422.9962372809693 L 844 422.22726637368334 L 845 421.45803184710854 L 846 420.68854372657694 L 847 419.91881204072547 L 848 419.1488468213654 L 849 418.37865810335165 L 850 417.608255924452 L 851 416.8376503252162 L 852 416.06685134884515 L 853 415.29586904106014 L 854 414.52471344997144 L 855 413.753394625948 L 856 412.98192262148615 L 857 412.2103074910785 L 858 411.43855929108304 L 859 410.66668807959206 L 860 409.89470391630107 L 861 409.1226168623775 L 862 408.3504369803301 L 863 407.57817433387686 L 864 406.8058389878149 L 865 406.03344100788877 L 866 405.2609904606592 L 867 404.488497413372 L 868 403.71597193382695 L 869 402.9434240902466 L 870 402.17086395114484 L 871 401.39830158519567 L 872 400.62574706110246 L 873 399.8532104474661 L 874 399.0807018126542 L 875 398.3082312246696 L 876 397.53580875101954 L 877 396.7634444585838 L 878 395.9911484134842 L 879 395.2189306809531 L 880 394.446801325202 L 881 393.67477040929066 L 882 392.9028479949961 L 883 392.13104414268093 L 884 391.35936891116296 L 885 390.5878323575833 L 886 389.81644453727586 L 887 389.04521550363626 L 888 388.2741553079905 L 889 387.50327399946406 L 890 386.7325816248512 L 891 385.9620882284838 L 892 385.1918038521004 L 893 384.4217385347155 L 894 383.65190231248846 L 895 382.88230521859316 L 896 382.11295728308676 L 897 381.3438685327791 L 898 380.5750489911022 L 899 379.8065086779796 L 900 379.03825760969556 L 901 378.2703057987647 L 902 377.5026632538014 L 903 376.73533997938955 L 904 375.968345975952 L 905 375.2016912396201 L 906 374.43538576210375 L 907 373.6694395305608 L 908 372.90386252746737 L 909 372.13866473048733 L 910 371.3738561123423 L 911 370.60944664068205 L 912 369.8454462779541 L 913 369.0818649812742 L 914 368.3187127022965 L 915 367.5559993870836 L 916 366.79373497597743 L 917 366.0319294034693 L 918 365.2705925980705 L 919 364.509734482183 L 920 363.74936497196995 L 921 362.9894939772268 L 922 362.2301314012518 L 923 361.4712871407168 L 924 360.7129710855389 L 925 359.95519311875097 L 926 359.1979631163731 L 927 358.44129094728373 L 928 357.6851864730913 L 929 356.9296595480054 L 930 356.1747200187086 L 931 355.42037772422816 L 932 354.66664249580714 L 933 353.9135241567774 L 934 353.1610325224305 L 935 352.4091773998906 L 936 351.6579685879861 L 937 350.90741587712205 L 938 350.1575290491528 L 939 349.4083178772542 L 940 348.6597921257965 L 941 347.91196155021674 L 942 347.164835896892 L 943 346.4184249030122 L 944 345.6727382964531 L 945 344.9277857956496 L 946 344.1835771094693 L 947 343.4401219370856 L 948 342.6974299678516 L 949 341.95551088117327 L 950 341.2143743463841 L 951 340.47403002261865 L 952 339.73448755868657 L 953 338.9957565929471 L 954 338.2578467531831 L 955 337.52076765647615 L 956 336.78452890908056 L 957 336.0491401062988 L 958 335.3146108323556 L 959 334.5809506602741 L 960 333.8481691517502 L 961 333.1162758570286 L 962 332.38528031477773 L 963 331.65519205196597 L 964 330.926020583737 L 965 330.19777541328625 L 966 329.47046603173686 L 967 328.7441019180157 L 968 328.01869253873025 L 969 327.2942473480451 L 970 326.57077578755866 L 971 325.8482872861801 L 972 325.1267912600066 L 973 324.4062971122005 L 974 323.68681423286677 L 975 322.96835199893064 L 976 322.2509197740154 L 977 321.53452690832046 L 978 320.81918273849925 L 979 320.1048965875379 L 980 319.3916777646333 L 981 318.6795355650721 L 982 317.9684792701095 L 983 317.25851814684825 L 984 316.5496614481176 L 985 315.8419184123533 L 986 315.13529826347684 L 987 314.42981021077514 L 988 313.7254634487808 L 989 313.022267157152 L 990 312.320230500553 L 991 311.6193626285349 L 992 310.9196726754159 L 993 310.2211697601627 L 994 309.5238629862714 L 995 308.8277614416491 L 996 308.1328741984952 L 997 307.4392103131832 L 998 306.7467788261429 L 999 306.05558876174223 L 1000 305.36564912817016 L 1001 304.67696891731845 L 1002 303.9895571046654 L 1003 303.3034226491583 L 1004 302.6185744930967 L 1005 301.9350215620161 L 1006 301.25277276457166 L 1007 300.5718369924216 L 1008 299.8922231201119 L 1009 299.21394000496036 L 1010 298.53699648694106 L 1011 297.86140138856933 L 1012 297.1871635147869 L 1013 296.51429165284685 L 1014 295.8427945721991 L 1015 295.1726810243764 L 1016 294.50395974288006 L 1017 293.83663944306613 L 1018 293.17072882203195 L 1019 292.50623655850234 L 1020 291.8431713127174 L 1021 291.18154172631864 L 1022 290.5213564222372 L 1023 289.86262400458065 L 1024 289.20535305852167 L 1025 288.54955215018555 L 1026 287.8952298265389 L 1027 287.242394615278 L 1028 286.59105502471783 L 1029 285.9412195436812 L 1030 285.2928966413881 L 1031 284.6460947673451 L 1032 284.00082235123557 L 1033 283.35708780280964 L 1034 282.71489951177455 L 1035 282.0742658476855 L 1036 281.4351951598362 L 1037 280.79769577715047 L 1038 280.16177600807356 L 1039 279.5274441404637 L 1040 278.8947084414842 L 1041 278.263577157496 L 1042 277.6340585139495 L 1043 277.00616071527804 L 1044 276.37989194479064 L 1045 275.75526036456534 L 1046 275.13227411534297 L 1047 274.51094131642094 L 1048 273.89127006554753 L 1049 273.2732684388162 L 1050 272.6569444905605 L 1051 272.0423062532489 L 1052 271.4293617373805 L 1053 270.81811893137984 L 1054 270.20858580149377 L 1055 269.600770291687 L 1056 268.99468032353866 L 1057 268.39032379613934 L 1058 267.78770858598756 L 1059 267.1868425468878 L 1060 266.58773350984774 L 1061 265.9903892829763 L 1062 265.3948176513817 L 1063 264.80102637707023 L 1064 264.20902319884533 L 1065 263.6188158322059 L 1066 263.03041196924664 L 1067 262.4438192785574 L 1068 261.85904540512297 L 1069 261.2760979702241 L 1070 260.6949845713377 L 1071 260.11571278203775 L 1072 259.5382901518969 L 1073 258.962724206388 L 1074 258.3890224467858 L 1075 257.8171923500698 L 1076 257.24724136882577 L 1077 256.67917693114964 L 1078 256.1130064405502 L 1079 255.54873727585235 L 1080 254.98637679110175 L 1081 254.42593231546817 L 1082 253.8674111531504 L 1083 253.31082058328093 L 1084 252.75616785983104 L 1085 252.2034602115164 L 1086 251.65270484170264 L 1087 251.10390892831185 L 1088 250.55707962372847 L 1089 250.01222405470656 L 1090 249.46934932227674 L 1091 248.92846250165368 L 1092 248.38957064214375 L 1093 247.85268076705339 L 1094 247.31779987359727 L 1095 246.78493493280746 L 1096 246.2540928894423 L 1097 245.72528066189585 L 1098 245.19850514210802 L 1099 244.67377319547458 L 1100 244.15109166075757 L 1101 243.6304673499963 L 1102 243.11190704841871 L 1103 242.59541751435256 L 1104 242.08100547913776 L 1105 241.56867764703824 L 1106 241.05844069515499 L 1107 240.5503012733387 L 1108 240.04426600410338 L 1109 239.54034148253967 L 1110 239.03853427622934 L 1111 238.53885092515932 L 1112 238.04129794163674 L 1113 237.5458818102038 L 1114 237.05260898755347 L 1115 236.5614859024452 L 1116 236.07251895562132 L 1117 235.58571451972347 L 1118 235.1010789392093 L 1119 234.6186185302703 L 1120 234.13833958074932 L 1121 233.66024835005837 L 1122 233.18435106909726 L 1123 232.7106539401723 L 1124 232.2391631369156 L 1125 231.7698848042045 L 1126 231.3028250580814 L 1127 230.8379899856743 L 1128 230.37538564511718 L 1129 229.91501806547134 L 1130 229.4568932466465 L 1131 229.0010171593229 L 1132 228.54739574487337 L 1133 228.09603491528577 L 1134 227.64694055308624 L 1135 227.20011851126205 L 1136 226.7555746131859 L 1137 226.31331465253965 L 1138 225.87334439323888 L 1139 225.43566956935786 L 1140 225.0002958850547 L 1141 224.56722901449706 L 1142 224.1364746017882 L 1143 223.7080382608935 L 1144 223.28192557556707 L 1145 222.85814209927926 L 1146 222.4366933551441 L 1147 222.0175848358473 L 1148 221.60082200357485 L 1149 221.18641028994168 L 1150 220.77435509592078 L 1151 220.3646617917731 L 1152 219.95733571697735 L 1153 219.55238218016027 L 1154 219.14980645902784 L 1155 218.74961380029623 L 1156 218.35180941962346 L 1157 217.95639850154143 L 1158 217.56338619938836 L 1159 217.17277763524163 L 1160 216.78457789985106 L 1161 216.39879205257245 L 1162 216.01542512130172 L 1163 215.63448210240944 L 1164 215.2559679606756 L 1165 214.87988762922504 L 1166 214.5062460094629 L 1167 214.1350479710111 L 1168 213.76629835164454 L 1169 213.40000195722843 L 1170 213.036163561655 L 1171 212.67478790678211 L 1172 212.31587970237084 L 1173 211.95944362602444 L 1174 211.60548432312711 L 1175 211.2540064067837 L 1176 210.90501445775942 L 1177 210.5585130244202 L 1178 210.2145066226734 L 1179 209.87299973590902 L 1180 209.53399681494113 L 1181 209.19750227795004 L 1182 208.86352051042448 L 1183 208.53205586510475 L 1184 208.20311266192573 L 1185 207.87669518796068 L 1186 207.55280769736552 L 1187 207.23145441132291 L 1188 206.9126395179878 L 1189 206.5963671724326 L 1190 206.28264149659296 L 1191 205.9714665792141 L 1192 205.66284647579766 L 1193 205.35678520854862 L 1194 205.05328676632297 L 1195 204.75235510457586 L 1196 204.45399414530976 L 1197 204.15820777702373 L 1198 203.86499985466233 L 1199 203.57437419956568 L 1200 203.28633459941952 L 1201 203.00088480820585 L 1202 202.7180285461541 L 1203 202.43776949969254 L 1204 202.1601113214003 L 1205 201.88505762995968 L 1206 201.61261201010902 L 1207 201.34277801259617 L 1208 201.07555915413187 L 1209 200.81095891734424 L 1210 200.54898075073314 L 1211 200.2896280686254 L 1212 200.03290425113025 L 1213 199.7788126440953 L 1214 199.5273565590628 L 1215 199.27853927322673 L 1216 199.03236402938984 L 1217 198.78883403592155 L 1218 198.5479524667161 L 1219 198.30972246115113 L 1220 198.0741471240468 L 1221 197.84122952562535 L 1222 197.610972701471 L 1223 197.38337965249053 L 1224 197.1584533448741 L 1225 196.9361967100565 L 1226 196.71661264467906 L 1227 196.49970401055188 L 1228 196.28547363461655 L 1229 196.07392430890926 L 1230 195.86505879052433 L 1231 195.6588798015785 L 1232 195.45539002917528 L 1233 195.25459212536992 L 1234 195.05648870713503 L 1235 194.86108235632622 L 1236 194.66837561964866 L 1237 194.47837100862378 L 1238 194.29107099955655 L 1239 194.10647803350318 L 1240 193.92459451623947 L 1241 193.74542281822917 L 1242 193.5689652745934 L 1243 193.39522418508 L 1244 193.22420181403356 L 1245 193.05590039036616 L 1246 192.89032210752785 L 1247 192.7274691234786 L 1248 192.56734356065982 L 1249 192.40994750596678 L 1250 192.25528301072146 L 1251 192.10335209064576 L 1252 191.9541567258353 L 1253 191.80769886073355 L 1254 191.6639804041065 L 1255 191.52300322901777 L 1256 191.38476917280434 L 1257 191.24928003705227 L 1258 191.1165375875736 L 1259 190.98654355438316 L 1260 190.85929963167595 L 1261 190.73480747780522 L 1262 190.61306871526077 L 1263 190.49408493064777 L 1264 190.37785767466616 L 1265 190.2643884620904 L 1266 190.15367877174975 L 1267 190.045730046509 L 1268 189.94054369324957 L 1269 189.83812108285127 L 1270 189.73846355017452 L 1271 189.64157239404273 L 1272 189.54744887722555 L 1273 189.4560942264223 L 1274 189.36750963224605 L 1275 189.28169624920815 L 1276 189.19865519570308 L 1277 189.11838755399387 L 1278 189.04089437019812 L 1279 188.96617665427425 L 1280 188.89423538000835 L 1281 188.82507148500156 L 1282 188.75868587065776 L 1283 188.6950794021719 L 1284 188.6342529085187 L 1285 188.57620718244175 L 1286 188.52094298044335 L 1287 188.4684610227746 L 1288 188.41876199342582 L 1289 188.37184654011793 L 1290 188.32771527429387 L 1291 188.28636877111055 L 1292 188.24780756943147 L 1293 188.21203217181971 L 1294 188.17904304453128 L 1295 188.14884061750908 L 1296 188.12142528437744 L 1297 188.09679740243666 L 1298 188.07495729265878 L 1299 188.05590523968297 L 1300 188.0396414918122 L 1301 188.02616626100968 L 1302 188.01547972289634 L 1303 188.0075820167484 L 1304 188.00247324549565 L 1305 188.00015347572 L 1306 188.0006227376547 L 1307 188.003881025184 L 1308 188.00992829584297 L 1309 188.01876447081838 L 1310 188.0303894349495 L 1311 188.04480303672975 L 1312 188.06200508830852 L 1313 188.08199536549378 L 1314 188.10477360775488 L 1315 188.130339518226 L 1316 188.15869276371 L 1317 188.1898329746828 L 1318 188.2237597452981 L 1319 188.26047263339285 L 1320 188.2999711604928 L 1321 188.34225481181883 L 1322 188.38732303629376 L 1323 188.43517524654936 L 1324 188.48581081893408 L 1325 188.53922909352124 L 1326 188.59542937411746 L 1327 188.65441092827197 L 1328 188.716172987286 L 1329 188.78071474622274 L 1330 188.84803536391797 L 1331 188.91813396299102 L 1332 188.99100962985608 L 1333 189.06666141473426 L 1334 189.14508833166582 L 1335 189.2262893585231 L 1336 189.3102634370239 L 1337 189.39700947274514 L 1338 189.48652633513717 L 1339 189.5788128575386 L 1340 189.67386783719135 L 1341 189.77169003525643 L 1342 189.8722781768301 L 1343 189.97563095096035 L 1344 190.08174701066426 L 1345 190.19062497294513 L 1346 190.3022634188109 L 1347 190.4166608932925 L 1348 190.53381590546272 L 1349 190.6537269284558 L 1350 190.7763923994872 L 1351 190.90181071987413 L 1352 191.0299802550561 L 1353 191.16089933461657 L 1354 191.29456625230443 L 1355 191.43097926605648 L 1356 191.57013659801987 L 1357 191.71203643457557 L 1358 191.85667692636167 L 1359 192.00405618829782 L 1360 192.15417229960957 L 1361 192.30702330385353 L 1362 192.4626072089427 L 1363 192.62092198717264 L 1364 192.7819655752478 L 1365 192.9457358743083 L 1366 193.1122307499576 L 1367 193.28144803228992 L 1368 193.4533855159188 L 1369 193.62804096000576 L 1370 193.80541208828947 L 1371 193.98549658911546 L 1372 194.16829211546624 L 1373 194.35379628499192 L 1374 194.5420066800411 L 1375 194.73292084769264 L 1376 194.92653629978741 L 1377 195.12285051296078 L 1378 195.32186092867568 L 1379 195.52356495325557 L 1380 195.72795995791859 L 1381 195.93504327881166 L 1382 196.14481221704526 L 1383 196.3572640387285 L 1384 196.5723959750049 L 1385 196.79020522208836 L 1386 197.01068894129978 L 1387 197.233844259104 L 1388 197.45966826714718 L 1389 197.68815802229497 L 1390 197.91931054667057 L 1391 198.1531228276937 L 1392 198.38959181811973 L 1393 198.62871443607966 L 1394 198.87048756511993 L 1395 199.11490805424344 L 1396 199.36197271795018 L 1397 199.61167833627906 L 1398 199.86402165484978 L 1399 200.1189993849052 L 1400 200.3766082033543 L 1401 200.6368447528154 L 1402 200.89970564165992 L 1403 201.16518744405664 L 1404 201.4332867000164 L 1405 201.70399991543698 L 1406 201.97732356214883 L 1407 202.253254077961 L 1408 202.53178786670753 L 1409 202.81292129829444 L 1410 203.09665070874684 L 1411 203.38297240025673 L 1412 203.67188264123152 L 1413 203.96337766634218 L 1414 204.25745367657257 L 1415 204.55410683926888 L 1416 204.85333328818973 L 1417 205.15512912355635 L 1418 205.45949041210343 L 1419 205.76641318713067 L 1420 206.075893448554 L 1421 206.38792716295816 L 1422 206.70251026364895 L 1423 207.0196386507064 L 1424 207.3393081910382 L 1425 207.6615147184335 L 1426 207.98625403361714 L 1427 208.31352190430465 L 1428 208.64331406525707 L 1429 208.9756262183367 L 1430 209.31045403256337 L 1431 209.64779314417032 L 1432 209.98763915666152 L 1433 210.3299876408688 L 1434 210.67483413500966 L 1435 211.02217414474526 L 1436 211.37200314323925 L 1437 211.72431657121646 L 1438 212.07910983702263 L 1439 212.43637831668397 L 1440 212.79611735396765 L 1441 213.15832226044233 L 1442 213.52298831553932 L 1443 213.8901107666142 L 1444 214.25968482900856 L 1445 214.6317056861125 L 1446 215.00616848942724 L 1447 215.3830683586288 L 1448 215.76240038163093 L 1449 216.14415961464948 L 1450 216.52834108226682 L 1451 216.91493977749673 L 1452 217.30395066184946 L 1453 217.6953686653976 L 1454 218.08918868684205 L 1455 218.48540559357852 L 1456 218.88401422176452 L 1457 219.28500937638637 L 1458 219.6883858313273 L 1459 220.0941383294353 L 1460 220.50226158259167 L 1461 220.91275027178006 L 1462 221.32559904715555 L 1463 221.7408025281146 L 1464 222.1583553033653 L 1465 222.57825193099745 L 1466 223.00048693855382 L 1467 223.42505482310133 L 1468 223.8519500513029 L 1469 224.28116705948943 L 1470 224.7127002537324 L 1471 225.14654400991677 L 1472 225.58269267381414 L 1473 226.02114056115673 L 1474 226.46188195771109 L 1475 226.9049111193529 L 1476 227.35022227214168 L 1477 227.79780961239604 L 1478 228.2476673067693 L 1479 228.69978949232564 L 1480 229.15417027661636 L 1481 229.61080373775667 L 1482 230.06968392450324 L 1483 230.53080485633117 L 1484 230.9941605235123 L 1485 231.45974488719347 L 1486 231.92755187947523 L 1487 232.39757540349083 L 1488 232.8698093334859 L 1489 233.34424751489803 L 1490 233.8208837644371 L 1491 234.29971187016585 L 1492 234.78072559158096 L 1493 235.26391865969413 L 1494 235.74928477711396 L 1495 236.23681761812804 L 1496 236.7265108287853 L 1497 237.21835802697885 L 1498 237.71235280252904 L 1499 238.20848871726756 L 1500 238.70675930512044 L 1501 239.20715807219298 L 1502 239.70967849685422 L 1503 240.2143140298219 L 1504 240.7210580942478 L 1505 241.22990408580355 L 1506 241.7408453727666 L 1507 242.25387529610668 L 1508 242.76898716957263 L 1509 243.28617427977952 L 1510 243.80542988629605 L 1511 244.3267472217326 L 1512 244.85011949182925 L 1513 245.37553987554435 L 1514 245.90300152514354 L 1515 246.4324975662887 L 1516 246.96402109812823 L 1517 247.497565193386 L 1518 248.03312289845243 L 1519 248.5706872334747 L 1520 249.11025119244786 L 1521 249.65180774330625 L 1522 250.19534982801486 L 1523 250.7408703626616 L 1524 251.28836223754942 L 1525 251.8378183172891 L 1526 252.3892314408922 L 1527 252.94259442186436 L 1528 253.49790004829902 L 1529 254.05514108297132 L 1530 254.61431026343254 L 1531 255.1754003021047 L 1532 255.73840388637544 L 1533 256.30331367869337 L 1534 256.8701223166641 L 1535 257.43882241314543 L 1536 258.0094065563443 L 1537 258.5818673099128 L 1538 259.15619721304574 L 1539 259.7323887805774" stroke-linecap="round" stroke-linejoin="round" stroke-miterlimit="10" stroke-width="38"/></g></svg>